<svg xmlns="http://www.w3.org/2000/svg" viewBox="0 0 800 520" width="800" height="520" role="img" aria-label="">
  <defs>
    <linearGradient id="mtn-sky" x1="0%" y1="0%" x2="0%" y2="100%">
      <stop offset="0%" stop-color="#e4eef0"/>
      <stop offset="55%" stop-color="#f2efe8"/>
      <stop offset="100%" stop-color="#e8e4dc"/>
    </linearGradient>
    <linearGradient id="mtn-sun" x1="0%" y1="0%" x2="100%" y2="100%">
      <stop offset="0%" stop-color="#f8f2e6"/>
      <stop offset="100%" stop-color="#c8d9d2"/>
    </linearGradient>
  </defs>
  <rect width="800" height="520" fill="url(#mtn-sky)"/>
  <circle cx="620" cy="120" r="36" fill="url(#mtn-sun)" opacity="0.55"/>
  <path
    d="M-20 420 L180 200 L360 360 L520 120 L700 300 L880 200 L900 520 L-20 520 Z"
    fill="#9bb8b2"
    opacity="0.55"
  />
  <path
    d="M0 450 L220 220 L400 400 L600 180 L800 360 L800 520 L0 520 Z"
    fill="#6d9189"
  />
  <path
    d="M0 480 L320 280 L480 400 L800 220 L800 520 L0 520 Z"
    fill="#456860"
  />
  <path d="M0 520 L800 320 L800 520 Z" fill="#2c4540" opacity="0.45"/>
</svg>
